<svg xmlns="http://www.w3.org/2000/svg" width="500" height="338.8" viewBox="0 0 5000 3388">
  <defs>
    <style>
      .cls-1 {
        fill: #7bb4c0;
        fill-rule: evenodd;
      }
    </style>
  </defs>
  <path id="Color_Fill_1" data-name="Color Fill 1" class="cls-1" d="M1897.35,35.7l16.83,2.1q9.45,9.463,18.92,18.927c-17.95,136.434-44.77,286.792-92.53,399.571-102.2,241.318-297.94,424.374-508.93,557.3l-277.59,164.03c-46.61,25.98-105.415,28.74-132.494,73.61q-16.821,48.36-33.648,96.74c-55.275,139.74-96.634,287.77-134.592,447.94-9.169,38.69-48.184,169.9-33.648,203.99,2.1-.7,4.206-1.41,6.309-2.11,23.1-69.67,115.577-88.5,145.107-149.31q5.258-35.745,10.515-71.5c14.912-59.39,36.255-115.64,65.194-161.93,146.707-234.68,408.457-340.89,649.827-481.59q119.865-66.24,239.74-132.49c17.78-10.826,57.26-48.36,79.92-42.061,46.44,18.9,26.65,112.431,23.13,166.141-9.23,140.83-41.33,252.66-98.84,351.2-108.59,186.07-246.46,331.29-458.46,414.29-48.2,18.87-151.25,57.11-220.81,46.27q-60.975-8.415-121.98-16.83-59.922-13.665-119.867-27.34-38.9,34.695-77.811,69.4c-52.956,42.77-110.478,119.68-138.8,185.07-25.127,58.01-19.826,122.68-31.545,199.78-11.35,74.68-6.306,164.66-6.309,248.16-0.006,156.38-16.242,348.43,44.163,447.94,34.986,57.63,100.062,80.31,176.652,96.74,37.452,8.03,107.267-.19,128.285,25.23q-4.215,29.445-8.41,58.89-185.05-4.215-370.132-8.42H505.161c-36.211,5.38-211.849,12.72-235.536,2.11-2.608-14.45-4.959-59.21,4.206-65.2q48.363-6.3,96.738-12.61c77.16-16.88,145.257-44.75,176.652-107.26,39.755-79.15,31.545-259.09,31.545-374.33q2.1-179.79,4.206-359.62c11.2-72.58,11.268-178.53-2.1-248.15-11.732-61.1-32.97-110.23-52.575-159.83-349.943,32.23-375.075-448.48-426.91-740.26-13.809-77.73-10.046-160.772-23.133-246.049q-2.1-45.21-4.206-90.429c11.066-1.5,12.115-3.805,18.927-8.412,77.336,13.224,134.648,68.983,187.168,109.356C441.348,1038.68,561.046,1222.53,622.93,1444.71c41.438,148.78,54.875,318.97-27.339,429.02-0.479,34.75,30.93,139.32,48.369,153.52v-4.21q12.616-66.24,25.236-132.49,33.645-142.995,67.3-286.01,49.416-152.445,98.841-304.93,34.7-82.02,69.4-164.04v-82.02q5.257-86.208,10.515-172.442c26.647-145.79,75.641-261.592,149.313-359.614,144.49-192.239,422.32-302.752,656.14-405.88Q1809.02,75.66,1897.35,35.7Zm-56.78,92.533L1590.31,243.9c-272.19,119.582-464.69,216.182-576.22,500.515C993.123,797.86,935.956,974.32,953.1,1047.25q6.308-2.115,12.618-4.21,28.387-47.31,56.78-94.636c84.25-134.132,186.1-256.114,313.35-347,49.16-35.112,108.12-75.875,166.14-98.841,30.36-12.022,73.01-1.139,54.67,37.854-239.81,96.523-458.39,354.154-569.91,582.529h6.309C1296.99,981.882,1640.67,771.809,1771.17,460.507c22.81-54.406,100.71-261.243,84.12-332.275h-14.72ZM3905.72,525.7c213.03-4.484,371.38,83.59,502.62,166.137,37.26,23.434,137.83,117.2,191.37,103.048,65.57-32.412,47.01-144.977,71.51-220.816,28.31-.5,64.41-2.739,86.22,4.206q-6.315,292.289-12.62,584.635c0,52.97,11.7,229.97-2.1,260.77-28.55,4.05-58.11-.32-84.12-4.2l-18.93-100.95c-20.56-87.91-34.07-179.47-65.19-258.67-82.36-209.583-238.59-340.531-450.05-420.6-70.56-26.717-152.52-35.828-231.33-52.575q1.05-24.182,2.11-48.369Q3900.46,532.009,3905.72,525.7ZM2286.41,3223.86c-0.78-17.69-4.35-51.5,6.31-58.89q33.645-7.35,67.29-14.72c84.92-18.62,161.93-29.07,199.79-94.63,41.51-71.89,33.17-226.51,33.65-332.28V2622.4q1.05-632.94,2.1-1266.01-2.1-268.11-4.21-536.269h-2.1q-2.1,1.052-4.21,2.1c-21.16,17.635-61.23,162.675-75.7,199.786q-87.27,236.565-174.55,473.18-325.935,873.7-651.94,1747.59c-26.61.84-53.39,0.72-69.39-8.41q-221.85-575.115-443.74-1150.34c81.59,11.76,175.27,4.08,243.95-16.83,34.75-10.57,62.78-34.09,103.05-35.75q29.43,80.955,58.88,161.93,65.19,172.44,130.39,344.9c17.65,44.9,40.07,150.35,69.4,180.85,7.2-2.75,8.65-2.13,12.61-8.41Q2189.63,1634.1,2591.34,557.245l660.35-10.515c1.71,20.364,7.88,46.153,2.1,67.3-84.6,4.9-220.2,21.305-258.67,75.708-65.61,92.769-48.42,348.936-48.37,506.826q1.05,599.3,2.1,1198.71c2.94,151.03-20.6,324.84,2.11,466.87,9.37,58.62-4.65,133.96,21.03,178.75,61.92,108.02,154.02,82.82,286.01,115.67q1.05,2.1,2.1,4.21c-4.87,16.81-4.75,40.78-2.1,58.88-0.7.7-1.41,1.4-2.11,2.1q-229.2-3.15-458.45-6.31H2620.79Q2453.615,3219.655,2286.41,3223.86ZM137.135,893.726c-1.475,184.364,38.651,384.684,77.811,540.474,25.337,100.79,40.746,203.85,90.43,279.7,25.3,38.63,118.557,148.3,193.476,119.87q5.258-4.2,10.515-8.41c-10.159-67.03-38.1-127.38-56.781-187.17q-7.359-35.745-14.721-71.5c-13.547-46.01-39.7-96.43-21.03-151.42l4.206-2.1,27.339-2.1c37.685,81.29,60.93,184.07,88.326,273.39,11.236,36.62,15.135,84.61,35.751,113.56,1.4-1.4,2.8-2.81,4.206-4.21l8.412-4.2c31.04-267.9-60.052-489.37-172.446-647.73-25.446-35.85-59.149-65.23-86.223-98.84C293.6,1002.32,191.29,905.935,137.135,893.726ZM1867.91,1047.25c-52.63,50.91-139.52,77.93-203.99,115.66-197.64,115.67-457.29,222.13-595.15,395.37-47.45,59.61-105.509,130.05-115.668,225.02q47.312-30.495,94.638-60.99c98.44-62.09,198.15-118.1,304.93-172.45,30.26-15.4,63.02-41.5,100.95-46.26,5.49,7.93,10.23,10.03,18.92,14.72v14.72c-104.11,76.53-225.01,142.54-336.48,212.4-43.32,27.15-105.29,53.3-136.692,92.54v2.1c43.382,8.06,87.032,23.13,134.592,31.54,88.45,15.64,167.5-18.45,227.12-42.06,188.8-74.76,308.91-210.56,410.09-372.23,53.88-86.09,140.03-257.64,111.46-405.88-2.1-.7-4.21-1.4-6.31-2.1ZM4019.28,2069.31c222.97-.93,445.18,14.45,672.97,12.61,36.8-.29,224.4-8.5,231.33,0,6.63,14.02,4.7,42.1,2.1,58.89q-2.1,1.05-4.21,2.1c-57.91,10.2-115.6,14.67-145.1,52.58-48.25,61.98-37.87,201.4-37.86,309.14q-2.1,247.08-4.2,494.2-2.115,98.835-4.21,197.69c-26.78.59-48.71,3.31-65.19-6.31-15.33-73.32-27.51-180.93-94.64-201.89-49.44-15.44-104.51,43.2-132.49,63.09-92.38,65.65-186.93,120.52-309.14,157.73-24.46,7.44-210.67,54.31-233.43,25.23v-58.88q3.15-1.05,6.31-2.11,65.175-6.3,130.38-12.61c109.92-25.76,270.97-86.62,323.86-166.14,36.57-54.97,35.76-138.52,35.76-231.33-0.01-168.88,18.97-436.99-54.68-532.06-61.95-79.97-195.55-66.52-317.56-88.33v-73.6Z"/>
</svg>
