<svg xmlns="http://www.w3.org/2000/svg" width="499.861" height="499.861" viewBox="0 0 3061 3061">
  <defs>
    <style>
      .cls-1 {
        fill: #f7f5f3;
        fill-rule: evenodd;
      }
    </style>
  </defs>
  <path id="Brown_shape_2.svg" data-name="Brown shape 2.svg" class="cls-1" d="M1411.41,2651.92c-108.88-99.6-192.02-263.61-275.13-422.65-42.53-79.35-85.87-156.61-135.22-225.79a1158.685,1158.685,0,0,0-163.052-185.06c-117.8-108.76-250.443-189.25-343.89-289.69-45.851-50.54-81.852-106.13-99.17-171.83-17.671-65.37-16.659-140.86,3.347-223.81,14.842-80.67,51.6-165.487,94.262-243.277,43.01-78.1,91.918-149.185,139.161-209.609,96.913-121.715,189.8-203.165,302.628-259.368,112.184-55.719,245.594-87.37,404.884-95.178,157.17-7.415,337.83,11.158,493.13,66.939,75.76,27.226,142.44,62.1,196.94,102.7,54.88,40.634,97.64,86.936,134.61,137.918,72.01,102.279,127.93,222.135,201.91,365.436,71.58,142.292,157.28,313.752,227.91,490.822,69.62,177.54,122.6,348.95,84,515.77-32.71,166.91-164.9,324.5-290.51,444.17-128.78,120.76-249.98,201.72-352.46,257.69-105.71,54.54-194.81,86.33-298.98,85.81C1633.68,2791.54,1518.65,2755.64,1411.41,2651.92Z"/>
</svg>
