<svg xmlns="http://www.w3.org/2000/svg" width="499.861" height="499.861" viewBox="0 0 3061 3061">
  <defs>
    <style>
      .cls-1 {
        fill: #bcd8d6;
        fill-rule: evenodd;
      }
    </style>
  </defs>
  <path id="Teal_shape_2.svg" data-name="Teal shape 2.svg" class="cls-1" d="M1872.39,405.338c63.46-4.747,128.39-12.559,193.64-11.457,65.14,0.787,130.59,10.489,192.45,33.478,124.47,45.049,233.76,143.447,319.34,279.117,86.06,135.014,148.7,305.224,193.61,476.854,44.1,172.01,75.32,339.25,82.13,477.53,6.44,142.5-15.73,255.35-89.17,374.97-71.7,117.62-197.66,244.08-346.49,356.82-148.92,112.7-313.41,206.42-468.14,261.79-156.12,56.73-306.65,78.22-465.07,77.5-155.54-4.21-313.61-17.25-456.83-42.73-144.089-25.68-273.1-63.78-390.324-122.69-116.955-58.8-222.027-138.3-311.057-243.73-88.588-105.75-156.83-234.52-190.479-399.6-17.192-85.54-24.671-181.3-23.553-290.88,1.666-109.34,11.929-232.48,42.882-367.35,30.534-132.56,83.576-277.274,170.507-410.687C411.6,720.812,531.262,598.65,668.2,510.063c137.3-89.82,289.963-145.046,426.915-167.346,137.77-23.308,259.83-13.69,354.88,2.925,97.29,17.43,169.88,39.882,235.22,51.26C1750.39,409.151,1808.33,410.326,1872.39,405.338Z"/>
</svg>
