<svg xmlns="http://www.w3.org/2000/svg" width="499.861" height="499.861" viewBox="0 0 3061 3061">
  <defs>
    <style>
      .cls-1 {
        fill: #bcd8d6;
        fill-rule: evenodd;
      }
    </style>
  </defs>
  <path id="Teal_shape_1.svg" data-name="Teal shape 1.svg" class="cls-1" d="M1990.89,421.105c119.24,20.971,210.09,93.67,291.36,178.488,80.64,86.252,151.7,184.623,217.1,290.042,64.88,105.843,124.1,218.715,169.31,343.535,44.81,124.21,75.6,260.38,74.34,399-0.63,141.06-28.88,271.36-85.45,394.67-56.24,122.63-140.8,238.27-246.38,334.25-105.5,96.09-232.03,172.53-370.59,219.21-138.74,47.56-289.51,65.36-447.89,64.64-155.69-3.41-312.76-13.52-450.67-32.25-138.89-18.95-258.621-46.53-362.188-89.95-103.423-43.4-190.657-102.63-261.014-184.29-69.08-81.37-121.282-185.17-125.2-311.41-2.717-130.08,57.921-280.39,178.394-456.81,118.233-174.49,296.3-375.09,476.655-561.08,182.69-185.107,367.7-355.646,526.98-460.443C1736.51,441.632,1871.64,400.3,1990.89,421.105Z"/>
</svg>
