<svg xmlns="http://www.w3.org/2000/svg" width="499.861" height="499.861" viewBox="0 0 3061 3061">
  <defs>
    <style>
      .cls-1 {
        fill: #f7f5f3;
        fill-rule: evenodd;
      }
    </style>
  </defs>
  <path id="Brown_shape_1.svg" data-name="Brown shape 1.svg" class="cls-1" d="M1481.37,346.812c178.03,0.195,367.87,30.541,530.27,92.627,164,61.69,300.54,155.12,408.77,272.332,108.54,117.1,188.72,257.993,246.82,412.149,57.09,154.35,92.09,321.96,87.29,496.73,0.44,173.38-48.15,336.27-113.71,475.85-67.15,140.13-151.27,256.94-258.51,350.81-107.12,93.81-237.32,164.67-393.34,211.35-154.15,46-334.11,67.81-497.72,47.81-79.73-9.9-152.09-29.61-213.29-58.37-61.6-28.7-112.05-66.46-157.37-110.75-89.01-89.08-163.377-202.7-267.146-325.64-100.463-123.58-232-256.96-347.525-404.09-115.488-146.41-200.215-311.4-198.887-484.13-4.2-172.09,76.91-333.172,165.419-460.731C563.456,733.845,661.867,638.452,750.205,566.4c92.474-72.149,174.836-120.936,290.555-158.682C1154.62,371.136,1301.85,345.6,1481.37,346.812Z"/>
</svg>
