<svg xmlns="http://www.w3.org/2000/svg" width="700.051" height="700.051" viewBox="0 0 3061 3061">
  <defs>
    <style>
      .cls-1 {
        fill: #bcd8d6;
        fill-rule: evenodd;
      }
    </style>
  </defs>
  <path id="Color_Fill_1" data-name="Color Fill 1" class="cls-1" d="M765.676,853.445C764.4,870.866,778.094,893.5,784.519,911.5c25.237,70.7,86.394,161.874,148.423,213.554,52.614,43.84,106.8,78.92,162.868,102.74q25.68,9.735,51.35,19.47,11.37,2.85,22.73,5.7l133.03,151.75q63.075,63.525,126.15,127.06c44.67,39.54,92.6,76.64,134.3,116.16-0.74.13-1.47,0.25-2.21,0.37l-31.48-9.21c1.91-6.17-19.77-18.59-26.51-22.75-31.12-19.2-62.67-36.07-94.77-48.44-127.67-49.2-260.83-63.36-405.62-1.1,113.26,122.12,247.5,140.72,382.37,127.01,30.64-3.12,62.5-11.64,93.27-19.79q22.59-7.2,45.19-14.41c25.6,5.64,72.76,15.7,94.82,29.84q28.515,21.285,57.05,42.55c36.38,23.32,73.44,47.34,109.51,68.64q17.07,9.825,34.15,19.65,2.655,3.63,5.3,7.27c29.91,10.08,58,29.3,87.86,42.35q43.245,18.57,86.52,37.13-25.8.27-51.61,0.53-21.2-8.685-42.38-17.36l-81.94-20.67c-27.97-7.51-60.38-8.27-89.49-8.97-121.56-2.93-242.65,15.94-381.16,117.23,126.07,72.53,245.42,88.65,388.57,50.68,47.53-12.6,93-36.43,142.61-60.74l60.51-39.21c16.99-5.42,116.88,1.35,134.93,6.76,97.34,29.18,191.85,53.49,293.29,55.84,19.84,0.45,86.03,6.71,100.87-4.29q-1.965-10.32-3.93-20.65c-44.77,14.77-108.68,1.06-153-1-137.95-6.4-272.13-61.91-402.29-118.66q-39.03-20.415-78.07-40.83c-12.96-10.8-57.4-97.11-60.76-110.4q3.4-24.15,6.83-48.31c1.49-33.36,3.82-67.66,1.52-101.39-6.18-90.65-33.92-235.4-134.72-328.79-30.91-28.65-60.8-52.5-92.46-72.42q-3.45,19.86-6.92,39.72-2.325,40.065-4.64,80.14c0.66,51.62,10.35,104.02,24.74,157.74,25,93.33,105,216.63,187.87,286.28q19.335,36.645,38.65,73.31c-0.73.12-1.47,0.25-2.2,0.37q-21.24-12.975-42.47-25.96-54.315-37.1-108.64-74.22c-67.57-49.9-133.42-111.08-203.57-172.07-29.18-25.37-54.97-55.95-84.91-84.12l-33.14-35.24c-6.37-16.69-18.67-101.69-16.07-117.02q11.46-20.745,22.94-41.5c13.56-31,26.75-62.07,36.83-93.73,41.53-130.52,45.85-277.715-67.76-432.119-80.24,138.194-104.49,276.979-69.06,432.939,7.84,34.54,20.36,69.84,34.43,104.85,4.89,12.18,20.76,33.58,21.68,39.89l10.2,76.74c-0.27.2-.54,0.39-0.81,0.59q-40.575-47.13-81.17-94.27-12.015-14.76-24.02-29.51c-9.09-21.8-15.79-48.24-25.26-71.94-27.46-68.69-88.2-157.49-146.72-206.134-57.827-48.063-116.352-76.192-178.594-93.741Zm31.657,26.416,67.593,16.284c76.673,26,185.564,97.139,242.3,208.185,18.04,35.3,32.76,69.81,48.47,102.04-0.27.2-.54,0.39-0.81,0.59l-64.8-61.65q-58.71-52.47-117.438-104.95c-0.269.2-.539,0.4-0.808,0.59q-6.6,7.92-13.208,15.83l0.59,0.81c45.224,34.23,84.554,76.19,128.7,115.29,10.3,9.12,44.5,35.44,48.38,47.64-0.39-.54-0.78-1.08-1.18-1.62-27.47-3.97-58.88-24.22-84.1-38.9-57.772-33.64-152.413-94.54-197.256-180.391C838.7,970.744,792.872,901.131,797.333,879.861ZM1299.12,746.4c111.49,155.421,72.28,355.976,3.66,485.086-8.01-52.97-4.64-109.15-5.48-161.88l-0.81-91.021q-2.4-.731-4.78-1.462c-6.69,1.344-13.32-.629-18.23,2.162q3.18,123.947,6.36,247.9c-0.59-.8-1.18-1.61-1.77-2.42-9.67-32.42-22.57-61.98-29.78-93.4-23.29-101.49-19.61-201.293,11.64-294.47C1269.74,807.665,1279.53,773.43,1299.12,746.4Zm274.14,435.016q18.81,14.745,37.62,29.5,22.785,23.6,45.59,47.19c28.73,28.13,47.81,70.22,59.71,98.79,36.17,86.88,46.25,163.11,45.03,243.21-0.29,18.63,1.38,38.83-3.14,56.77q-19.23-44.16-38.45-88.31c-20.4-51.22-47.52-100.54-61.42-152.02q-10.545,3.36-21.09,6.73c0.39,0.53.78,1.07,1.18,1.61q36.015,90.075,72.05,180.16,11.355,25.74,22.73,51.5c-111.03-113.77-155.44-250.95-164.11-360.57C1567.01,1271.23,1562.74,1200.91,1573.26,1181.42Zm-529.37,392.52q17.67-5.475,35.34-10.94c28.81-7.1,58.37-13.04,86.81-15.07,110.39-7.87,212.04,22.29,312.59,78.89q-50.25-10.35-100.53-20.71-63.765-11.04-127.53-22.07-2.04,10.77-4.08,21.55,22.365,3.5,44.72,6.98,94.05,18.63,188.12,37.26c-19.42,9.73-42.58,11.21-61.8,15.4-95.28,20.75-193.08,15.83-278.69-25.64a418.887,418.887,0,0,1-71.83-44.15C1061.1,1590.99,1043.89,1580.91,1043.89,1573.94Zm356.05,396.29q22.485-13.32,44.95-26.62,39.525-17.085,79.06-34.17c121.51-40.92,253.36-39.59,363.04-1.26l-68.44,2.91q-61.965,4.98-123.94,9.98c-11.69.94-56.23,0.84-61.3,7.6l4.14,19.26,50.07-4.35,142.76-11.34,72.04-3.06c0.2,0.27.39,0.54,0.59,0.81-36.45,27.15-79.58,45.79-115.77,58.49-144.32,50.67-268.64,55.43-393.88-12.14-0.19-.27-0.39-0.54-0.59-0.81Q1396.315,1972.875,1399.94,1970.23Z"/>
</svg>
