<svg xmlns="http://www.w3.org/2000/svg" width="700.051" height="700.051" viewBox="0 0 3061 3061">
  <defs>
    <style>
      .cls-1 {
        fill: #bcd8d6;
        fill-rule: evenodd;
      }
    </style>
  </defs>
  <path id="Color_Fill_1" data-name="Color Fill 1" class="cls-1" d="M1776,523.986c11.3,13.321,13.58,39.674,19,58,21.29,71.985,25.64,181.686,6,260-16.66,66.428-39.75,126.707-71,179q-15,22.995-30,46l-15,18q-9,100.485-18,201-13.5,88.485-27,177c-12.78,58.27-29.61,116.5-40,173,0.67-.34,1.33-0.67,2-1q10.005-13.005,20-26c-5.18-3.86,5.01-26.67,8-34,13.82-33.86,29.36-66.09,48-95,74.12-115.01,173.34-204.94,327-240-19.51,165.41-116.97,259.56-234,328-26.58,15.54-57.35,27.44-87,39l-45,15c-17.36,19.64-49.52,55.57-59,80q-10.5,33.99-21,68c-15.64,40.28-31.42,81.53-48,120q-7.995,18-16,36v9c-18.21,25.77-29.57,57.86-46,86q-24,40.485-48,81l42-30q12-19.5,24-39,27-32.505,54-65c18.17-22.56,43.91-42.28,67-60,96.47-74.03,205.4-130.17,377-130-59.07,132.9-145.99,216.28-284,270-45.83,17.83-96.6,25.39-151,35q-36,2-72,4c-16.92,5.63-93.61,69.99-105,85-61.43,80.95-123.44,156.3-204,218-15.75,12.06-65.53,56.13-84,56q-4.5-9.51-9-19c44.87-14.46,88.41-63.21,123-91,107.66-86.49,183.32-210.43,255-333q19.5-39.495,39-79c4.1-16.37-10.88-112.29-16-125q-16.995-17.505-34-35c-20.87-26.07-42.97-52.4-61-81-48.45-76.87-111.37-210.15-85-345,8.09-41.37,18.16-78.26,32-113q14.505,13.995,29,28,25.5,30.99,51,62c29.89,42.08,52.96,90.12,73,142,34.83,90.12,42.88,236.88,17,342q6,40.995,12,82c0.67-.34,1.33-0.67,2-1q9.495-23.01,19-46,22.005-61.995,44-124c25.16-80.14,42.29-168.38,63-259,8.61-37.7,11.42-77.6,19-118q3-24,6-48c-4.69-17.24-44.87-93.15-56-104q-21.495-10.005-43-20c-29.23-17.05-58.2-34.37-85-54-110.49-80.96-200.75-197.305-200-389,146.28,64.331,247.68,162.138,311,309,14.03,32.53,24.72,68.42,34,105,3.23,12.72,3.02,39.36,6,45q18.495,33.99,37,68h1q4.995-61.995,10-124,1.005-19.005,2-38c-5.5-22.97-15.68-48.27-22-73-18.31-71.671-21.6-179.205-3-253,18.37-72.91,49.07-130.132,89-181Q1750.5,549.989,1776,523.986Zm-10,40q-22.5,26.5-45,53c-46.61,66.2-92.63,187.855-73,311,6.24,39.15,14.69,75.7,21,111h1q7.995-44,16-88,16.5-76.992,33-154h1q10.005,2.5,20,5v1c-16.35,54.308-23.39,111.394-36,169-2.94,13.441-15.05,54.864-11,67v-2c19.85-19.41,33.29-54.281,45-81,26.84-61.231,67.38-166.22,53-262C1786.16,661.783,1782.14,578.537,1766,563.986Zm-484,188c1.56,191.27,151.46,330.154,283,394-24.75-47.52-60.59-90.91-91-134q-26.49-37-53-74l3-4c6.19-2.857,10.38-8.354,16-9q70.5,101.99,141,204v-3c-11.3-31.88-18.3-63.37-31-93-41.02-95.715-102.83-174.161-183-231C1341.85,784.151,1313.76,762.268,1282,751.986Zm35,513q-6.495,22.995-13,46-4.5,32.49-9,65c-6.63,39.65,2.77,84.9,10,115,21.99,91.49,58.79,159.01,107,223,11.21,14.88,21.77,32.18,36,44q-10.5-46.995-21-94c-13.71-53.4-20.89-109.22-40-159q10.5-3.51,21-7v2q24,93.99,48,188,6,27.495,12,55c22.62-157.36-22.38-294.34-80-388C1374.99,1333.85,1336.99,1274.52,1317,1264.99Zm659,5q-17.505,6-35,12c-27.45,11.24-54.83,23.87-79,39-93.81,58.71-158.14,143-206,248q34.5-37.995,69-76,45-46.5,90-93,7.995,7.5,16,15-16.005,15.99-32,32-64.995,70.485-130,141c21.42-3.59,41-16.05,59-24,89.19-39.4,165.29-101.04,210-185a419.524,419.524,0,0,0,32-78C1972.15,1293.91,1980.11,1275.62,1976,1269.99Zm-54,530q-25.995,2.49-52,5-42,9.495-84,19c-122.28,38.58-228,117.38-294,213q28.5-19.005,57-38,52.995-32.505,106-65c10-6.14,45.92-32.48,54-30q4.005,9,8,18-21.495,12.99-43,26-60.99,37.485-122,75-30,19.995-60,40v1c45.45,0.44,91.28-9.93,128-21,146.44-44.15,249.67-113.6,311-242v-1h-9Z"/>
</svg>
